<?xml version="1.0" encoding="utf-8"?>
<!-- Generator: Adobe Illustrator 16.0.4, SVG Export Plug-In . SVG Version: 6.00 Build 0)  -->
<!DOCTYPE svg PUBLIC "-//W3C//DTD SVG 1.1//EN" "http://www.w3.org/Graphics/SVG/1.1/DTD/svg11.dtd">
<svg version="1.1" id="Layer_1" xmlns="http://www.w3.org/2000/svg" xmlns:xlink="http://www.w3.org/1999/xlink" x="0px" y="0px"
	 width="200px" height="50px" viewBox="0 0 200 50" style="enable-background:new 0 0 200 50;" xml:space="preserve">
<style type="text/css">
<![CDATA[
	.st0{fill:#FFFFFF;}
]]>
</style>
<g>
	<path class="st0" d="M26.208,8.611v13.801h13.308v5.053H26.208V41.39h-5.177V27.465H7.724v-5.053h13.308V8.611H26.208z"/>
</g>
<g>
	<path class="st0" d="M78.428,28.73c0,0.92-0.413,1.391-1.236,1.409c0.096,0.441,0.306,1.035,0.632,1.782
		c-0.02,0.422-0.192,0.768-0.518,1.035c-0.326,0.27-0.709,0.402-1.15,0.402c-0.345,0-0.748-0.104-1.208-0.316
		c-0.25-0.498-0.374-1.092-0.374-1.781c0-0.174,0.009-0.422,0.028-0.748s0.029-0.565,0.029-0.719c0,0.135-0.316,0.201-0.949,0.201
		c-1.073,0-2.348,0.048-3.824,0.144c-2.108,0.115-3.253,0.278-3.436,0.489s-0.302,1.236-0.359,3.076
		c-0.249,0.363-0.565,0.546-0.949,0.546c-0.402,0-0.815-0.168-1.236-0.503c-0.422-0.336-0.632-0.695-0.632-1.078
		c0-0.134,0.172-0.671,0.518-1.609c0.383-1.361,1.006-3.402,1.869-6.125c2.568-7.034,4.705-10.551,6.411-10.551
		c1.667,0,2.952,1.859,3.853,5.578c0.402,1.667,0.776,4.226,1.121,7.676c0.499,0.115,0.814,0.211,0.949,0.287
		C78.274,28.099,78.428,28.367,78.428,28.73z M74.402,27.639c-0.843-6.689-1.601-10.034-2.271-10.034
		c-0.537,0-1.476,1.572-2.817,4.715c-0.959,2.262-1.716,4.226-2.271,5.893c0.613-0.133,1.524-0.297,2.731-0.488
		C70.866,27.591,72.409,27.562,74.402,27.639z"/>
	<path class="st0" d="M90.588,16.34c0,0.422-0.058,0.968-0.172,1.639c-0.154,0.901-0.25,1.438-0.288,1.61
		c-0.058,0.595-0.148,2.348-0.273,5.261c-0.125,2.914-0.187,4.523-0.187,4.83c0,1.84,0.201,3.221,0.604,4.141
		c-0.326,0.535-0.7,0.805-1.122,0.805c-0.441,0-0.833-0.168-1.179-0.504c-0.345-0.334-0.537-0.723-0.575-1.164
		c-0.901,0.824-1.821,1.236-2.76,1.236c-1.399,0-2.482-0.488-3.249-1.466c-0.709-0.882-1.064-2.042-1.064-3.479
		c0-1.686,0.345-3.401,1.035-5.146c0.881-2.204,2.031-3.307,3.45-3.307c0.843,0,1.706,0.374,2.588,1.122
		c0.096-0.901,0.144-3.201,0.144-6.9c0-0.345,0.259-0.517,0.776-0.517c0.613,0,1.145,0.153,1.596,0.46
		C90.363,15.267,90.588,15.727,90.588,16.34z M87.253,26.086c0-0.651-0.144-1.246-0.431-1.782c-0.364-0.651-0.844-0.978-1.438-0.978
		c-0.862,0-1.524,0.853-1.984,2.559c-0.345,1.227-0.518,2.435-0.518,3.623c0,1.782,0.518,2.674,1.553,2.674
		c1.073,0,1.85-0.796,2.329-2.387C87.09,28.722,87.253,27.485,87.253,26.086z"/>
	<path class="st0" d="M102.203,16.34c0,0.422-0.058,0.968-0.172,1.639c-0.154,0.901-0.25,1.438-0.288,1.61
		c-0.058,0.595-0.148,2.348-0.272,5.261c-0.125,2.914-0.188,4.523-0.188,4.83c0,1.84,0.201,3.221,0.604,4.141
		c-0.326,0.535-0.699,0.805-1.121,0.805c-0.441,0-0.833-0.168-1.179-0.504c-0.345-0.334-0.537-0.723-0.575-1.164
		c-0.901,0.824-1.821,1.236-2.76,1.236c-1.399,0-2.482-0.488-3.249-1.466c-0.709-0.882-1.064-2.042-1.064-3.479
		c0-1.686,0.345-3.401,1.035-5.146c0.881-2.204,2.031-3.307,3.45-3.307c0.843,0,1.706,0.374,2.588,1.122
		c0.096-0.901,0.144-3.201,0.144-6.9c0-0.345,0.259-0.517,0.776-0.517c0.613,0,1.145,0.153,1.595,0.46S102.203,15.727,102.203,16.34
		z M98.868,26.086c0-0.651-0.144-1.246-0.431-1.782c-0.364-0.651-0.844-0.978-1.438-0.978c-0.862,0-1.524,0.853-1.984,2.559
		c-0.345,1.227-0.518,2.435-0.518,3.623c0,1.782,0.518,2.674,1.553,2.674c1.073,0,1.85-0.796,2.329-2.387
		C98.705,28.722,98.868,27.485,98.868,26.086z"/>
	<path class="st0" d="M122.673,29.1c0,0.363-0.096,0.802-0.287,1.316c-0.479,1.26-1.38,2.252-2.703,2.977
		c-1.207,0.648-2.53,0.974-3.968,0.974c-2.357,0-4.168-0.89-5.434-2.671c-1.092-1.549-1.639-3.55-1.639-6
		c0-2.028,0.316-3.933,0.949-5.713c0.709-2.028,1.754-3.618,3.134-4.766c1.093-0.899,2.204-1.35,3.335-1.35
		c1.629,0,2.865,0.709,3.709,2.127c0.689,1.15,1.035,2.598,1.035,4.341c0,0.786-0.202,1.773-0.604,2.961
		c-0.479,1.457-1.016,2.185-1.61,2.185c-0.67,0-1.178-0.422-1.523-1.265c0.191-0.134,0.461-0.354,0.805-0.661
		c0.384-0.421,0.576-1.246,0.576-2.473c0-1.188-0.125-2.194-0.374-3.019c-0.384-1.246-1.017-1.869-1.897-1.869
		c-0.613,0-1.285,0.392-2.013,1.176c-0.556,0.593-1.026,1.253-1.409,1.98c-0.939,1.837-1.408,4.124-1.408,6.859
		c0,3.979,1.494,5.97,4.484,5.97c1.284,0,2.301-0.362,3.048-1.086c0.307-0.323,0.757-0.999,1.352-2.027
		c0.402-0.742,0.834-1.113,1.294-1.113c0.306,0,0.574,0.119,0.805,0.357C122.558,28.551,122.673,28.814,122.673,29.1z"/>
	<path class="st0" d="M134.92,28.156c0,1.725-0.431,3.201-1.293,4.428c-0.997,1.398-2.319,2.098-3.968,2.098
		c-1.687,0-2.962-0.574-3.824-1.725c-0.786-1.016-1.179-2.396-1.179-4.14c0-1.726,0.432-3.354,1.294-4.888
		c0.996-1.82,2.29-2.731,3.881-2.731c0.499,0,1.122,0.22,1.869,0.661C133.847,23.144,134.92,25.242,134.92,28.156z M132.391,28.099
		c0-2.933-0.71-4.399-2.128-4.399c-1.016,0-1.782,0.623-2.3,1.869c-0.384,0.939-0.575,2.004-0.575,3.191
		c0,2.549,0.757,3.824,2.271,3.824c0.978,0,1.705-0.527,2.185-1.582C132.208,30.197,132.391,29.229,132.391,28.099z"/>
	<path class="st0" d="M146.995,33.619c-0.288,0.439-0.643,0.66-1.064,0.66c-0.326,0-0.862-0.191-1.609-0.574v-0.346
		c0-0.421,0.009-1.044,0.028-1.868c0.019-0.824,0.028-1.428,0.028-1.812c0-4.102-0.609-6.152-1.829-6.152
		c-0.344,0-0.733,0.269-1.172,0.805c-1.354,1.648-2.03,3.632-2.03,5.951c0,0.326,0.062,0.811,0.188,1.452
		c0.124,0.643,0.187,1.126,0.187,1.452c0,0.269-0.125,0.488-0.374,0.661s-0.517,0.259-0.805,0.259c-1.149,0-1.725-0.729-1.725-2.186
		v-6.008c0-0.154,0.019-0.379,0.058-0.676c0.038-0.297,0.058-0.522,0.058-0.676c0-0.23-0.034-0.565-0.102-1.006
		s-0.101-0.767-0.101-0.978c0-0.307,0.178-0.599,0.532-0.877c0.354-0.277,0.676-0.417,0.963-0.417c0.422,0,0.853,0.24,1.294,0.719
		l-0.086,1.15c0.709-1.131,1.581-1.696,2.616-1.696c0.671,0,1.38,0.23,2.127,0.69c0.748,0.46,1.294,0.978,1.639,1.552
		c0.786,1.457,1.18,3.374,1.18,5.75V33.619z"/>
	<path class="st0" d="M154.814,23.527c0,0.518-0.786,0.882-2.358,1.092c-0.038,0.421-0.057,1.38-0.057,2.875v1.898
		c0,0.383,0.058,0.949,0.172,1.695c0.115,0.748,0.173,1.305,0.173,1.668c0,0.307-0.153,0.58-0.46,0.82
		c-0.307,0.239-0.613,0.359-0.92,0.359c-0.479,0-0.882-0.412-1.207-1.236c-0.25-0.633-0.374-1.246-0.374-1.841v-6.095
		c-0.882-0.134-1.39-0.22-1.524-0.259c-0.498-0.153-0.747-0.374-0.747-0.661c0-0.077,0.019-0.163,0.058-0.259
		c0.498-0.709,1.054-1.064,1.667-1.064c0.039,0,0.096,0,0.173,0c0.076,0.02,0.134,0.029,0.173,0.029
		c0.402,0,0.594-0.469,0.575-1.409v-2.099c-0.097-0.211-0.145-0.393-0.145-0.546c0-0.249,0.147-0.475,0.441-0.676
		s0.574-0.302,0.84-0.302c0.398,0,0.778,0.187,1.139,0.561c0.361,0.374,0.542,0.772,0.542,1.193c0,0.46-0.072,0.916-0.216,1.366
		s-0.206,0.915-0.188,1.394v0.115C154.066,22.301,154.814,22.761,154.814,23.527z"/>
	<path class="st0" d="M165.107,28.932c0,2.473-0.076,4.217-0.229,5.233c-0.097,0.594-0.499,0.892-1.208,0.892
		c-1.073,0-1.552-0.537-1.438-1.61c-0.958,0.46-1.955,0.69-2.989,0.69c-0.997,0-1.946-0.25-2.847-0.748
		c-1.073-0.594-1.61-1.352-1.61-2.271c0-0.9,0.613-1.744,1.841-2.529c1.111-0.709,2.156-1.064,3.134-1.064h2.443v-0.685
		c0.019-1.997-0.575-2.995-1.782-2.995c-1.515,0-2.271,0.702-2.271,2.105c0,0.475-0.269,0.712-0.805,0.712
		c-0.326,0-0.667-0.148-1.021-0.446c-0.354-0.297-0.531-0.607-0.531-0.934c0-1.073,0.383-1.955,1.149-2.645s1.687-1.035,2.761-1.035
		C163.306,21.601,165.107,24.045,165.107,28.932z M162.204,29.967c0-0.383-0.287-0.574-0.862-0.574
		c-2.396,0-3.594,0.565-3.594,1.695c0,0.614,0.526,0.921,1.581,0.921c0.651,0,1.265-0.183,1.84-0.546
		C161.859,31.061,162.204,30.562,162.204,29.967z"/>
	<path class="st0" d="M177.269,30.571c0,0.595-0.451,1.294-1.352,2.099c-0.805,0.748-1.528,1.217-2.171,1.408
		c-0.642,0.191-1.25,0.288-1.825,0.288c-1.515,0-2.698-0.479-3.551-1.438s-1.279-2.194-1.279-3.709c0-1.476,0.393-3.124,1.179-4.945
		c0.938-2.185,2.031-3.277,3.277-3.277c0.69,0,1.524,0.269,2.502,0.805c1.034,0.594,1.639,1.188,1.811,1.783
		c0.153,0.518,0.23,1.102,0.23,1.753c0,0.596-0.125,1.266-0.374,2.014c-0.307,0.958-0.69,1.438-1.15,1.438
		c-0.326,0-0.632-0.096-0.92-0.287c-0.345-0.209-0.518-0.467-0.518-0.771c0-0.02,0.087-0.238,0.259-0.658
		c0.096-0.189,0.145-0.715,0.145-1.572c0-0.706-0.029-1.164-0.087-1.374c-0.114-0.591-0.384-0.887-0.805-0.887
		c-0.939,0-1.668,0.812-2.185,2.436c-0.384,1.204-0.575,2.417-0.575,3.64c0,2.045,0.651,3.067,1.955,3.067
		c0.518,0,1.111-0.269,1.782-0.806c0.613-0.498,1.044-1.006,1.294-1.523c0.306-0.613,0.68-0.92,1.121-0.92
		c0.287,0,0.565,0.168,0.834,0.503C177.134,29.973,177.269,30.283,177.269,30.571z"/>
	<path class="st0" d="M184.283,23.527c0,0.518-0.786,0.882-2.358,1.092c-0.038,0.421-0.057,1.38-0.057,2.875v1.898
		c0,0.383,0.058,0.949,0.172,1.695c0.115,0.748,0.173,1.305,0.173,1.668c0,0.307-0.153,0.58-0.46,0.82
		c-0.307,0.239-0.613,0.359-0.92,0.359c-0.479,0-0.882-0.412-1.207-1.236c-0.25-0.633-0.374-1.246-0.374-1.841v-6.095
		c-0.882-0.134-1.39-0.22-1.524-0.259c-0.498-0.153-0.747-0.374-0.747-0.661c0-0.077,0.019-0.163,0.058-0.259
		c0.498-0.709,1.054-1.064,1.667-1.064c0.039,0,0.096,0,0.173,0c0.076,0.02,0.134,0.029,0.173,0.029
		c0.402,0,0.594-0.469,0.575-1.409v-2.099c-0.097-0.211-0.145-0.393-0.145-0.546c0-0.249,0.147-0.475,0.441-0.676
		s0.574-0.302,0.84-0.302c0.398,0,0.778,0.187,1.139,0.561c0.361,0.374,0.542,0.772,0.542,1.193c0,0.46-0.072,0.916-0.216,1.366
		s-0.206,0.915-0.188,1.394v0.115C183.535,22.301,184.283,22.761,184.283,23.527z"/>
</g>
</svg>
