<?xml version="1.0" encoding="utf-8"?>
<!-- Generator: Adobe Illustrator 16.0.4, SVG Export Plug-In . SVG Version: 6.00 Build 0)  -->
<!DOCTYPE svg PUBLIC "-//W3C//DTD SVG 1.1//EN" "http://www.w3.org/Graphics/SVG/1.1/DTD/svg11.dtd">
<svg version="1.1" id="Layer_1" xmlns="http://www.w3.org/2000/svg" xmlns:xlink="http://www.w3.org/1999/xlink" x="0px" y="0px"
	 width="35px" height="35px" viewBox="0 0 35 35" style="enable-background:new 0 0 35 35;" xml:space="preserve">
<style type="text/css">
<![CDATA[
	.st0{fill:#FFFFFF;}
]]>
</style>
<g>
	<g id="Layer_5_2_">
		<g>
			<path class="st0" d="M17.5,0.773c-7.372,0-13.347,5.975-13.347,13.347c0,7.371,11.971,20.106,13.347,20.106
				c1.428,0,13.348-12.735,13.348-20.106C30.848,6.748,24.869,0.773,17.5,0.773z M16.51,16.6c-0.013-0.172,0.119-0.314,0.293-0.314
				h1.568c0.172,0,0.305,0.142,0.291,0.314c0,0-0.053,0.62-0.018,0.762c0.201,0.85,0.715,3.419,0.715,3.419
				c0.037,0.173-0.039,0.408-0.168,0.527l-1.374,1.264c-0.128,0.119-0.338,0.119-0.467,0l-1.373-1.264
				c-0.129-0.119-0.205-0.354-0.17-0.527c0,0,0.519-2.569,0.717-3.419C16.555,17.228,16.51,16.6,16.51,16.6z M7.939,13.732
				c0-5.306,4.301-9.609,9.608-9.609s9.607,4.303,9.607,9.609c0,2.77-1.172,5.265-3.047,7.018c-0.016,0.015-0.23,0.123-0.281-0.032
				l-1.615-4.994c-0.236-0.631-0.869-0.987-1.516-0.987c-0.32,0-0.35,0.008-0.543,0.008h-5.755c-0.737,0-1.279,0.348-1.512,0.979
				l-1.633,4.964c-0.074,0.203-0.244,0.08-0.25,0.076C9.109,19.01,7.939,16.517,7.939,13.732z"/>
			<ellipse class="st0" cx="17.584" cy="9.893" rx="3.955" ry="3.913"/>
		</g>
	</g>
</g>
</svg>
