<?xml version="1.0" encoding="utf-8"?>
<!-- Generator: Adobe Illustrator 16.0.4, SVG Export Plug-In . SVG Version: 6.00 Build 0)  -->
<!DOCTYPE svg PUBLIC "-//W3C//DTD SVG 1.1//EN" "http://www.w3.org/Graphics/SVG/1.1/DTD/svg11.dtd">
<svg version="1.1" id="Layer_1" xmlns="http://www.w3.org/2000/svg" xmlns:xlink="http://www.w3.org/1999/xlink" x="0px" y="0px"
	 width="35px" height="35px" viewBox="0 0 35 35" style="enable-background:new 0 0 35 35;" xml:space="preserve">
<style type="text/css">
<![CDATA[
	.st0{fill:#FFFFFF;}
]]>
</style>
<g>
	<g id="Layer_5_4_">
		<g>
			<g>
				<path class="st0" d="M28.244,0.391H6.756c-0.869,0-1.58,0.711-1.58,1.58v31.059c0,0.869,0.711,1.58,1.58,1.58h21.488
					c0.869,0,1.58-0.711,1.58-1.58V1.971C29.824,1.102,29.113,0.391,28.244,0.391z M13.006,2.006h8.988
					c0.369,0,0.668,0.299,0.668,0.666c0,0.369-0.299,0.668-0.668,0.668h-8.988c-0.368,0-0.667-0.299-0.667-0.668
					C12.339,2.305,12.638,2.006,13.006,2.006z M17.5,33.713c-0.717,0-1.299-0.582-1.299-1.299c0-0.719,0.582-1.301,1.299-1.301
					c0.718,0,1.299,0.582,1.299,1.301C18.799,33.131,18.218,33.713,17.5,33.713z M26.84,28.482c0,0.867-0.711,1.578-1.58,1.578H9.74
					c-0.869,0-1.58-0.711-1.58-1.578V6.518c0-0.869,0.711-1.58,1.58-1.58h15.52c0.869,0,1.58,0.711,1.58,1.58V28.482L26.84,28.482z"
					/>
			</g>
			<g>
				<path class="st0" d="M10.442,14.611c-0.141,0-0.282-0.043-0.403-0.133c-0.306-0.223-0.373-0.65-0.149-0.955l4.564-6.25
					c0.223-0.307,0.651-0.373,0.956-0.15c0.306,0.223,0.373,0.652,0.15,0.957l-4.565,6.25
					C10.861,14.514,10.653,14.611,10.442,14.611z"/>
			</g>
			<g>
				<path class="st0" d="M11.057,21.125c-0.136,0-0.272-0.041-0.392-0.125c-0.311-0.215-0.386-0.643-0.169-0.953L18.59,8.465
					c0.217-0.311,0.643-0.385,0.953-0.168c0.31,0.215,0.385,0.643,0.168,0.953l-8.093,11.582
					C11.485,21.023,11.272,21.125,11.057,21.125z"/>
			</g>
		</g>
	</g>
</g>
</svg>
