<?xml version="1.0" encoding="utf-8"?>
<!-- Generator: Adobe Illustrator 16.0.4, SVG Export Plug-In . SVG Version: 6.00 Build 0)  -->
<!DOCTYPE svg PUBLIC "-//W3C//DTD SVG 1.1//EN" "http://www.w3.org/Graphics/SVG/1.1/DTD/svg11.dtd">
<svg version="1.1" id="Layer_1" xmlns="http://www.w3.org/2000/svg" xmlns:xlink="http://www.w3.org/1999/xlink" x="0px" y="0px"
	 width="35px" height="35px" viewBox="0 0 35 35" style="enable-background:new 0 0 35 35;" xml:space="preserve">
<style type="text/css">
<![CDATA[
	.st0{fill:#FFFFFF;}
]]>
</style>
<g>
	<g id="Layer_5_5_">
		<path class="st0" d="M34.212,29.726c0,0-0.32,0-0.428,0c-0.233,0-0.233-0.276-0.233-0.276V10.065c0-0.488-0.399-0.889-0.888-0.889
			c0,0-5.147,0-6.864,0c-0.247,0-0.232-0.232-0.232-0.232V5.208c0-0.038,0.02-0.08,0.143-0.08c0.271,0,0.493-0.222,0.493-0.492V3.76
			c0-0.27-0.222-0.493-0.493-0.493H9.772C9.5,3.267,9.279,3.49,9.279,3.76v0.876c0,0.271,0.222,0.492,0.493,0.492
			c0.143,0,0.143,0.129,0.143,0.144v3.586c0,0,0.024,0.319-0.185,0.319c-1.853,0-7.413,0-7.413,0c-0.488,0-0.887,0.4-0.887,0.889
			c0,0,0,14.582,0,19.445c0,0.185-0.101,0.215-0.303,0.215c-0.261,0-0.34,0-0.34,0c-0.271,0-0.493,0.222-0.493,0.493v1.023
			c0,0.27,0.222,0.491,0.493,0.491h33.424c0.271,0,0.493-0.222,0.493-0.491v-1.023C34.705,29.947,34.483,29.726,34.212,29.726z
			 M19.624,13.429h2.95c0.217,0,0.396,0.176,0.396,0.393v2.951c0,0.217-0.179,0.394-0.396,0.394h-2.95
			c-0.217,0-0.395-0.177-0.395-0.394v-2.951C19.229,13.604,19.407,13.429,19.624,13.429z M19.229,11.599V8.647
			c0-0.217,0.178-0.394,0.395-0.394h2.95c0.217,0,0.396,0.177,0.396,0.394v2.951c0,0.217-0.179,0.394-0.396,0.394h-2.95
			C19.407,11.992,19.229,11.815,19.229,11.599z M19.624,18.419h2.95c0.217,0,0.396,0.179,0.396,0.396v2.949
			c0,0.217-0.179,0.396-0.396,0.396h-2.95c-0.217,0-0.395-0.179-0.395-0.396v-2.949C19.229,18.598,19.407,18.419,19.624,18.419z
			 M20.063,24.35c0.216,0,0.394,0.178,0.394,0.396v4.567c0,0.217-0.178,0.395-0.394,0.395h-4.569c-0.216,0-0.394-0.178-0.394-0.395
			v-4.567c0-0.218,0.177-0.396,0.394-0.396H20.063z M16.256,11.599c0,0.217-0.177,0.394-0.395,0.394h-2.95
			c-0.217,0-0.394-0.177-0.394-0.394V8.647c0-0.217,0.177-0.394,0.394-0.394h2.95c0.217,0,0.395,0.177,0.395,0.394V11.599z
			 M12.912,13.429h2.95c0.217,0,0.395,0.176,0.395,0.393v2.951c0,0.217-0.177,0.394-0.395,0.394h-2.95
			c-0.217,0-0.394-0.177-0.394-0.394v-2.951C12.518,13.604,12.695,13.429,12.912,13.429z M12.912,18.419h2.95
			c0.217,0,0.395,0.179,0.395,0.396v2.949c0,0.217-0.177,0.396-0.395,0.396h-2.95c-0.217,0-0.394-0.179-0.394-0.396v-2.949
			C12.518,18.598,12.695,18.419,12.912,18.419z M26.727,13.731c0-0.218,0.179-0.395,0.396-0.395h2.949
			c0.217,0,0.396,0.177,0.396,0.395v2.949c0,0.218-0.179,0.394-0.396,0.394h-2.949c-0.217,0-0.396-0.176-0.396-0.394V13.731z
			 M26.727,18.905c0-0.217,0.179-0.395,0.396-0.395h2.949c0.217,0,0.396,0.178,0.396,0.395v2.949c0,0.218-0.179,0.394-0.396,0.394
			h-2.949c-0.217,0-0.396-0.176-0.396-0.394V18.905z M26.727,23.896c0-0.217,0.179-0.393,0.396-0.393h2.949
			c0.217,0,0.396,0.176,0.396,0.393v2.949c0,0.22-0.179,0.396-0.396,0.396h-2.949c-0.217,0-0.396-0.176-0.396-0.396V23.896z
			 M4.515,13.731c0-0.218,0.177-0.395,0.394-0.395h2.95c0.217,0,0.394,0.177,0.394,0.395v2.949c0,0.218-0.177,0.394-0.394,0.394
			h-2.95c-0.217,0-0.394-0.176-0.394-0.394V13.731z M4.515,18.905c0-0.217,0.177-0.395,0.394-0.395h2.95
			c0.217,0,0.394,0.178,0.394,0.395v2.949c0,0.218-0.177,0.394-0.394,0.394h-2.95c-0.217,0-0.394-0.176-0.394-0.394V18.905z
			 M4.515,23.896c0-0.217,0.177-0.393,0.394-0.393h2.95c0.217,0,0.394,0.176,0.394,0.393v2.949c0,0.22-0.177,0.396-0.394,0.396
			h-2.95c-0.217,0-0.394-0.176-0.394-0.396V23.896z"/>
	</g>
</g>
</svg>
