<?xml version="1.0" encoding="utf-8"?>
<!-- Generator: Adobe Illustrator 16.0.4, SVG Export Plug-In . SVG Version: 6.00 Build 0)  -->
<!DOCTYPE svg PUBLIC "-//W3C//DTD SVG 1.1//EN" "http://www.w3.org/Graphics/SVG/1.1/DTD/svg11.dtd">
<svg version="1.1" id="Layer_1" xmlns="http://www.w3.org/2000/svg" xmlns:xlink="http://www.w3.org/1999/xlink" x="0px" y="0px"
	 width="35px" height="35px" viewBox="0 0 35 35" style="enable-background:new 0 0 35 35;" xml:space="preserve">
<style type="text/css">
<![CDATA[
	.st0{fill:#FFFFFF;}
]]>
</style>
<g>
	<g id="Layer_5_1_">
		<path class="st0" d="M33.106,5.751H1.894c-0.78,0-1.419,0.639-1.419,1.42V27.83c0,0.78,0.639,1.419,1.419,1.419h31.213
			c0.78,0,1.419-0.639,1.419-1.419V7.171C34.525,6.39,33.887,5.751,33.106,5.751z M22.687,18.486c2.635,1.775,9.44,7.044,9.44,7.044
			c0.271,0.184,0.291,0.654,0.155,0.935c-0.137,0.282-0.561,0.453-0.831,0.269c0,0-7.245-5.23-10.018-7.128
			c-0.153-0.105-0.289,0.021-0.289,0.021l-3.04,2.426c-0.166,0.136-0.385,0.211-0.616,0.211c-0.231,0-0.451-0.075-0.616-0.211
			l-3.075-2.453c0,0-0.106-0.093-0.227-0.011c-2.74,1.903-9.954,7.146-9.954,7.146c-0.271,0.185-0.787,0.014-0.922-0.269
			c-0.135-0.28-0.115-0.751,0.156-0.935c0,0,6.814-5.251,9.406-7.019c0.148-0.101-0.007-0.248-0.007-0.248L2.638,9.608
			C2.289,9.322,2.184,8.81,2.4,8.44c0.127-0.22,0.354-0.35,0.604-0.35c0.175,0,0.354,0.065,0.5,0.186l13.668,11.98
			c0.081,0.065,0.196,0.104,0.317,0.104s0.236-0.038,0.317-0.104l13.667-11.98c0.146-0.12,0.325-0.186,0.501-0.186
			c0.25,0,0.475,0.13,0.604,0.35c0.216,0.369,0.11,0.882-0.238,1.168l-9.637,8.681C22.702,18.289,22.567,18.405,22.687,18.486z"/>
	</g>
</g>
</svg>
