<?xml version="1.0" encoding="utf-8"?>
<!-- Generator: Adobe Illustrator 16.0.4, SVG Export Plug-In . SVG Version: 6.00 Build 0)  -->
<!DOCTYPE svg PUBLIC "-//W3C//DTD SVG 1.1//EN" "http://www.w3.org/Graphics/SVG/1.1/DTD/svg11.dtd">
<svg version="1.1" id="Layer_1" xmlns="http://www.w3.org/2000/svg" xmlns:xlink="http://www.w3.org/1999/xlink" x="0px" y="0px"
	 width="35px" height="35px" viewBox="0 0 35 35" style="enable-background:new 0 0 35 35;" xml:space="preserve">
<style type="text/css">
<![CDATA[
	.st0{fill:#FFFFFF;}
]]>
</style>
<g>
	<g>
		<path class="st0" d="M17.5,0.84c-9.186,0-16.66,7.475-16.66,16.661S8.314,34.16,17.5,34.16s16.66-7.473,16.66-16.659
			S26.688,0.84,17.5,0.84z M27.107,26.682c0-0.385,0-0.656,0-0.656c0-2.271-2.626-3.102-4.031-3.703
			c-0.509-0.217-1.468-0.678-2.451-1.158c-0.332-0.164-0.632-0.596-0.67-0.965l-0.108-1.078c0.753-0.701,1.432-1.676,1.546-2.765
			h0.17c0.268,0,0.52-0.2,0.559-0.445l0.267-1.646c0.035-0.352-0.297-0.565-0.565-0.565c0.007-0.034,0.013-0.07,0.016-0.1
			c0.035-0.198,0.056-0.389,0.069-0.575c0.017-0.149,0.03-0.305,0.038-0.466c0.027-0.776-0.104-1.456-0.322-1.837
			c-0.221-0.531-0.557-1.049-1.023-1.492c-1.302-1.231-2.811-1.712-4.098-0.721c-0.877-0.152-1.918,0.249-2.67,1.13
			c-0.411,0.481-0.667,1.031-0.776,1.573c-0.098,0.337-0.163,0.746-0.179,1.188c-0.018,0.491,0.03,0.941,0.121,1.307
			c-0.257,0.016-0.513,0.227-0.513,0.559l0.266,1.646c0.04,0.245,0.292,0.444,0.559,0.444h0.152
			c0.241,1.177,0.867,2.143,1.559,2.816l-0.104,1.041c-0.038,0.369-0.337,0.801-0.67,0.965c-0.951,0.465-1.889,0.912-2.45,1.143
			c-1.321,0.545-4.03,1.432-4.03,3.703v0.514c-2.207-2.377-3.567-5.547-3.567-9.036c0-7.336,5.969-13.306,13.305-13.306
			c7.337,0,13.305,5.97,13.305,13.306C30.805,21.061,29.393,24.291,27.107,26.682z"/>
	</g>
</g>
</svg>
