<?xml version="1.0" encoding="utf-8"?>
<!-- Generator: Adobe Illustrator 16.0.4, SVG Export Plug-In . SVG Version: 6.00 Build 0)  -->
<!DOCTYPE svg PUBLIC "-//W3C//DTD SVG 1.1//EN" "http://www.w3.org/Graphics/SVG/1.1/DTD/svg11.dtd">
<svg version="1.1" id="Layer_1" xmlns="http://www.w3.org/2000/svg" xmlns:xlink="http://www.w3.org/1999/xlink" x="0px" y="0px"
	 width="35px" height="35px" viewBox="0 0 35 35" style="enable-background:new 0 0 35 35;" xml:space="preserve">
<style type="text/css">
<![CDATA[
	.st0{fill:#FFFFFF;}
]]>
</style>
<g>
	<g id="Layer_5_3_">
		<g>
			<path class="st0" d="M10.069,30.39c0.027,0.879-0.67,1.597-1.548,1.597H2.114c-0.878,0-1.575-0.718-1.548-1.597
				c0,0,0.285-9.354,0.285-13.003c0-3.594-0.285-12.777-0.285-12.777C0.54,3.732,1.236,3.014,2.114,3.014h6.407
				c0.878,0,1.575,0.718,1.548,1.595c0,0-0.285,9.184-0.285,12.777C9.784,21.035,10.069,30.39,10.069,30.39z"/>
			<path class="st0" d="M33.137,3.014H13.136c-0.714,0-1.297,0.583-1.297,1.298v26.377c0,0.713,0.583,1.298,1.297,1.298h20.001
				c0.715,0,1.298-0.585,1.298-1.298V4.312C34.435,3.597,33.852,3.014,33.137,3.014z M19.351,28.179
				c0,0.439-0.359,0.798-0.799,0.798H15.74c-0.439,0-0.798-0.358-0.798-0.798v-2.384c0-0.438,0.359-0.8,0.798-0.8h2.812
				c0.439,0,0.799,0.361,0.799,0.8V28.179z M19.351,22.988c0,0.438-0.359,0.798-0.799,0.798H15.74c-0.439,0-0.798-0.359-0.798-0.798
				v-2.384c0-0.439,0.359-0.798,0.798-0.798h2.812c0.439,0,0.799,0.358,0.799,0.798V22.988z M19.351,17.797
				c0,0.439-0.359,0.798-0.799,0.798H15.74c-0.439,0-0.798-0.359-0.798-0.798v-2.383c0-0.439,0.359-0.798,0.798-0.798h2.812
				c0.439,0,0.799,0.359,0.799,0.798V17.797z M25.342,28.179c0,0.439-0.36,0.798-0.799,0.798H21.73
				c-0.439,0-0.799-0.358-0.799-0.798v-2.384c0-0.438,0.359-0.8,0.799-0.8h2.812c0.438,0,0.799,0.361,0.799,0.8V28.179z
				 M25.342,22.988c0,0.438-0.36,0.798-0.799,0.798H21.73c-0.439,0-0.799-0.359-0.799-0.798v-2.384c0-0.439,0.359-0.798,0.799-0.798
				h2.812c0.438,0,0.799,0.358,0.799,0.798V22.988z M25.342,17.797c0,0.439-0.36,0.798-0.799,0.798H21.73
				c-0.439,0-0.799-0.359-0.799-0.798v-2.383c0-0.439,0.359-0.798,0.799-0.798h2.812c0.438,0,0.799,0.359,0.799,0.798V17.797z
				 M31.332,28.179c0,0.439-0.359,0.798-0.799,0.798h-2.812c-0.439,0-0.798-0.358-0.798-0.798v-2.384c0-0.438,0.358-0.8,0.798-0.8
				h2.812c0.439,0,0.799,0.361,0.799,0.8V28.179z M31.332,22.988c0,0.438-0.359,0.798-0.799,0.798h-2.812
				c-0.439,0-0.798-0.359-0.798-0.798v-2.384c0-0.439,0.358-0.798,0.798-0.798h2.812c0.439,0,0.799,0.358,0.799,0.798V22.988z
				 M31.332,17.797c0,0.439-0.359,0.798-0.799,0.798h-2.812c-0.439,0-0.798-0.359-0.798-0.798v-2.383
				c0-0.439,0.358-0.798,0.798-0.798h2.812c0.439,0,0.799,0.359,0.799,0.798V17.797z M31.332,9.993c0,0.439-0.359,0.798-0.799,0.798
				H15.74c-0.439,0-0.798-0.359-0.798-0.798V7.61c0-0.439,0.359-0.798,0.798-0.798h14.793c0.439,0,0.799,0.359,0.799,0.798V9.993z"
				/>
		</g>
	</g>
</g>
</svg>
