<?xml version="1.0" encoding="utf-8"?>
<!-- Generator: Adobe Illustrator 16.0.4, SVG Export Plug-In . SVG Version: 6.00 Build 0)  -->
<!DOCTYPE svg PUBLIC "-//W3C//DTD SVG 1.1//EN" "http://www.w3.org/Graphics/SVG/1.1/DTD/svg11.dtd">
<svg version="1.1" id="Layer_1" xmlns="http://www.w3.org/2000/svg" xmlns:xlink="http://www.w3.org/1999/xlink" x="0px" y="0px"
	 width="35px" height="35px" viewBox="0 0 35 35" style="enable-background:new 0 0 35 35;" xml:space="preserve">
<style type="text/css">
<![CDATA[
	.st0{fill:#FFFFFF;}
]]>
</style>
<g>
	<g id="Layer_5_6_">
		<g>
			<g>
				<path class="st0" d="M22.431,5.719H20.6c-0.11,0-0.127-0.161-0.143-0.239c-0.276-1.381-1.495-2.422-2.957-2.422
					c-1.449,0-2.659,1.021-2.95,2.384c-0.019,0.092-0.013,0.278-0.154,0.278h-1.828c-0.292,0-0.499,0.237-0.457,0.527l0.472,3.324
					c0.042,0.29,0.314,0.527,0.607,0.527h8.618c0.293,0,0.567-0.237,0.607-0.527l0.473-3.324C22.93,5.956,22.725,5.719,22.431,5.719
					z"/>
			</g>
			<g>
				<path class="st0" d="M29.021,16.276h-9.016c-0.297,0-0.537-0.24-0.537-0.537s0.24-0.536,0.537-0.536h9.016
					c0.298,0,0.537,0.239,0.537,0.536S29.318,16.276,29.021,16.276z"/>
			</g>
			<g>
				<path class="st0" d="M29.021,20.636h-9.016c-0.297,0-0.537-0.24-0.537-0.536s0.24-0.536,0.537-0.536h9.016
					c0.298,0,0.537,0.24,0.537,0.536S29.318,20.636,29.021,20.636z"/>
			</g>
			<g>
				<path class="st0" d="M29.021,24.995h-9.016c-0.297,0-0.537-0.24-0.537-0.536c0-0.295,0.24-0.535,0.537-0.535h9.016
					c0.298,0,0.537,0.24,0.537,0.535C29.558,24.755,29.318,24.995,29.021,24.995z"/>
			</g>
			<g>
				<path class="st0" d="M32.977,6.577c0,0-5.642,0-7.848,0c-0.225,0-0.264,0.268-0.264,0.268l-0.229,1.613
					c0,0-0.045,0.264,0.202,0.264c1.742,0,5.993,0,5.993,0c0.768,0,1.395,0.627,1.395,1.394v18.288c0,0.767-0.627,1.395-1.395,1.395
					H4.168c-0.767,0-1.395-0.628-1.395-1.395V10.116c0-0.766,0.628-1.394,1.395-1.394c0,0,4.192,0,5.951,0
					c0.185,0,0.146-0.196,0.146-0.196l-0.247-1.736c0,0-0.036-0.212-0.237-0.212c-2.211,0-7.758,0-7.758,0
					c-0.767,0-1.395,0.627-1.395,1.393v22.579c0,0.767,0.627,1.394,1.395,1.394h30.953c0.768,0,1.395-0.627,1.395-1.394V7.97
					C34.371,7.204,33.744,6.577,32.977,6.577z"/>
			</g>
			<g>
				<g>
					<ellipse class="st0" cx="11.194" cy="15.997" rx="2.776" ry="2.747"/>
				</g>
				<path class="st0" d="M16.313,25.233l-1.789-4.728c-0.045-0.12-0.43-0.912-1.145-0.912c-0.226,0-0.226,0-0.226,0
					c-0.085,0.003-0.26,0.006-0.389,0.006H9.572c-0.128,0-0.338,0-0.466,0c0,0-0.021,0-0.148,0c-0.799,0-1.099,0.786-1.144,0.906
					l-1.79,4.728c-0.045,0.121-0.117,0.27,0.135,0.27h10.02C16.439,25.503,16.359,25.354,16.313,25.233z"/>
			</g>
		</g>
	</g>
</g>
</svg>
