<?xml version="1.0" encoding="utf-8"?>
<!-- Generator: Adobe Illustrator 16.0.4, SVG Export Plug-In . SVG Version: 6.00 Build 0)  -->
<!DOCTYPE svg PUBLIC "-//W3C//DTD SVG 1.1//EN" "http://www.w3.org/Graphics/SVG/1.1/DTD/svg11.dtd">
<svg version="1.1" id="Layer_1" xmlns="http://www.w3.org/2000/svg" xmlns:xlink="http://www.w3.org/1999/xlink" x="0px" y="0px"
	 width="35px" height="35px" viewBox="0 0 35 35" style="enable-background:new 0 0 35 35;" xml:space="preserve">
<style type="text/css">
<![CDATA[
	.st0{fill:#FFFFFF;}
]]>
</style>
<g>
	<g>
		<g>
			<path class="st0" d="M32.712,2.969H2.289c-0.901,0-1.631,0.73-1.631,1.631v19.085c0,0.901,0.73,1.632,1.631,1.632h11.377v3.696
				H9.239c-0.833,0-1.509,0.677-1.509,1.509s0.677,1.509,1.509,1.509h16.521c0.832,0,1.51-0.677,1.51-1.509s-0.678-1.509-1.51-1.509
				h-4.427v-3.696h11.378c0.9,0,1.631-0.73,1.631-1.632V4.6C34.343,3.699,33.612,2.969,32.712,2.969z M31.896,22.87H3.104V5.416
				h28.792V22.87z"/>
		</g>
	</g>
</g>
</svg>
