<?xml version="1.0" encoding="utf-8"?>
<!-- Generator: Adobe Illustrator 16.0.4, SVG Export Plug-In . SVG Version: 6.00 Build 0)  -->
<!DOCTYPE svg PUBLIC "-//W3C//DTD SVG 1.1//EN" "http://www.w3.org/Graphics/SVG/1.1/DTD/svg11.dtd">
<svg version="1.1" id="Layer_1" xmlns="http://www.w3.org/2000/svg" xmlns:xlink="http://www.w3.org/1999/xlink" x="0px" y="0px"
	 width="200px" height="50px" viewBox="0 0 200 50" style="enable-background:new 0 0 200 50;" xml:space="preserve">
<style type="text/css">
<![CDATA[
	.st0{fill:#FFFFFF;}
]]>
</style>
<g>
	<path class="st0" d="M97.277,29.1c0,0.363-0.096,0.802-0.287,1.316c-0.479,1.26-1.38,2.252-2.703,2.977
		c-1.208,0.648-2.53,0.974-3.968,0.974c-2.357,0-4.168-0.89-5.434-2.671c-1.092-1.549-1.639-3.55-1.639-6
		c0-2.028,0.316-3.933,0.949-5.713c0.709-2.028,1.754-3.618,3.134-4.766c1.092-0.899,2.204-1.35,3.335-1.35
		c1.629,0,2.865,0.709,3.708,2.127c0.69,1.15,1.035,2.598,1.035,4.341c0,0.786-0.201,1.773-0.604,2.961
		c-0.479,1.457-1.016,2.185-1.61,2.185c-0.671,0-1.179-0.422-1.523-1.265c0.191-0.134,0.46-0.354,0.805-0.661
		c0.383-0.421,0.575-1.246,0.575-2.473c0-1.188-0.125-2.194-0.374-3.019c-0.384-1.246-1.017-1.869-1.898-1.869
		c-0.613,0-1.284,0.392-2.012,1.176c-0.556,0.593-1.026,1.253-1.409,1.98c-0.939,1.837-1.409,4.124-1.409,6.859
		c0,3.979,1.495,5.97,4.485,5.97c1.284,0,2.3-0.362,3.047-1.086c0.307-0.323,0.757-0.999,1.352-2.027
		c0.402-0.742,0.833-1.113,1.293-1.113c0.307,0,0.575,0.119,0.805,0.357S97.277,28.814,97.277,29.1z"/>
	<path class="st0" d="M109.525,28.156c0,1.725-0.432,3.201-1.294,4.428c-0.997,1.398-2.319,2.098-3.968,2.098
		c-1.687,0-2.961-0.574-3.823-1.725c-0.786-1.016-1.179-2.396-1.179-4.14c0-1.726,0.432-3.354,1.293-4.888
		c0.997-1.82,2.291-2.731,3.882-2.731c0.498,0,1.121,0.22,1.868,0.661C108.451,23.144,109.525,25.242,109.525,28.156z
		 M106.995,28.099c0-2.933-0.709-4.399-2.128-4.399c-1.016,0-1.781,0.623-2.299,1.869c-0.385,0.939-0.576,2.004-0.576,3.191
		c0,2.549,0.758,3.824,2.271,3.824c0.979,0,1.706-0.527,2.186-1.582C106.812,30.197,106.995,29.229,106.995,28.099z"/>
	<path class="st0" d="M121.6,33.619c-0.287,0.439-0.643,0.66-1.063,0.66c-0.325,0-0.862-0.191-1.61-0.574v-0.346
		c0-0.421,0.01-1.044,0.029-1.868s0.029-1.428,0.029-1.812c0-4.102-0.61-6.152-1.83-6.152c-0.344,0-0.734,0.269-1.172,0.805
		c-1.354,1.648-2.029,3.632-2.029,5.951c0,0.326,0.062,0.811,0.187,1.452c0.124,0.643,0.187,1.126,0.187,1.452
		c0,0.269-0.125,0.488-0.373,0.661c-0.25,0.173-0.518,0.259-0.806,0.259c-1.149,0-1.725-0.729-1.725-2.186v-6.008
		c0-0.154,0.019-0.379,0.058-0.676c0.037-0.297,0.057-0.522,0.057-0.676c0-0.23-0.033-0.565-0.1-1.006
		c-0.068-0.441-0.102-0.767-0.102-0.978c0-0.307,0.178-0.599,0.532-0.877c0.354-0.277,0.676-0.417,0.964-0.417
		c0.421,0,0.852,0.24,1.293,0.719l-0.086,1.15c0.709-1.131,1.581-1.696,2.616-1.696c0.671,0,1.38,0.23,2.128,0.69
		c0.747,0.46,1.293,0.978,1.639,1.552c0.785,1.457,1.178,3.374,1.178,5.75V33.619z"/>
	<path class="st0" d="M129.42,23.527c0,0.518-0.786,0.882-2.358,1.092c-0.038,0.421-0.057,1.38-0.057,2.875v1.898
		c0,0.383,0.058,0.949,0.173,1.695c0.114,0.748,0.172,1.305,0.172,1.668c0,0.307-0.153,0.58-0.46,0.82
		c-0.307,0.239-0.614,0.359-0.92,0.359c-0.479,0-0.882-0.412-1.208-1.236c-0.249-0.633-0.373-1.246-0.373-1.841v-6.095
		c-0.882-0.134-1.391-0.22-1.523-0.259c-0.499-0.153-0.748-0.374-0.748-0.661c0-0.077,0.02-0.163,0.058-0.259
		c0.498-0.709,1.054-1.064,1.667-1.064c0.039,0,0.096,0,0.173,0c0.077,0.02,0.134,0.029,0.173,0.029
		c0.402,0,0.594-0.469,0.574-1.409v-2.099c-0.096-0.211-0.143-0.393-0.143-0.546c0-0.249,0.146-0.475,0.44-0.676
		s0.574-0.302,0.84-0.302c0.399,0,0.778,0.187,1.14,0.561c0.359,0.374,0.541,0.772,0.541,1.193c0,0.46-0.072,0.916-0.216,1.366
		s-0.206,0.915-0.187,1.394v0.115C128.672,22.301,129.42,22.761,129.42,23.527z"/>
	<path class="st0" d="M139.712,28.932c0,2.473-0.076,4.217-0.229,5.233c-0.097,0.594-0.499,0.892-1.207,0.892
		c-1.074,0-1.553-0.537-1.438-1.61c-0.959,0.46-1.955,0.69-2.99,0.69c-0.997,0-1.945-0.25-2.847-0.748
		c-1.073-0.594-1.61-1.352-1.61-2.271c0-0.9,0.613-1.744,1.84-2.529c1.111-0.709,2.156-1.064,3.135-1.064h2.443v-0.685
		c0.02-1.997-0.575-2.995-1.783-2.995c-1.514,0-2.271,0.702-2.271,2.105c0,0.475-0.269,0.712-0.806,0.712
		c-0.326,0-0.666-0.148-1.02-0.446c-0.355-0.297-0.532-0.607-0.532-0.934c0-1.073,0.383-1.955,1.149-2.645s1.688-1.035,2.76-1.035
		C137.91,21.601,139.712,24.045,139.712,28.932z M136.809,29.967c0-0.383-0.287-0.574-0.862-0.574c-2.396,0-3.594,0.565-3.594,1.695
		c0,0.614,0.526,0.921,1.581,0.921c0.651,0,1.266-0.183,1.84-0.546C136.463,31.061,136.809,30.562,136.809,29.967z"/>
	<path class="st0" d="M151.874,30.571c0,0.595-0.451,1.294-1.352,2.099c-0.805,0.748-1.528,1.217-2.171,1.408
		c-0.642,0.191-1.25,0.288-1.825,0.288c-1.515,0-2.698-0.479-3.551-1.438s-1.279-2.194-1.279-3.709c0-1.476,0.393-3.124,1.179-4.945
		c0.938-2.185,2.031-3.277,3.277-3.277c0.69,0,1.524,0.269,2.502,0.805c1.034,0.594,1.639,1.188,1.811,1.783
		c0.153,0.518,0.23,1.102,0.23,1.753c0,0.596-0.125,1.266-0.374,2.014c-0.307,0.958-0.69,1.438-1.15,1.438
		c-0.326,0-0.632-0.096-0.92-0.287c-0.345-0.209-0.518-0.467-0.518-0.771c0-0.02,0.087-0.238,0.259-0.658
		c0.096-0.189,0.145-0.715,0.145-1.572c0-0.706-0.029-1.164-0.087-1.374c-0.114-0.591-0.384-0.887-0.805-0.887
		c-0.939,0-1.668,0.812-2.185,2.436c-0.384,1.204-0.575,2.417-0.575,3.64c0,2.045,0.651,3.067,1.955,3.067
		c0.518,0,1.111-0.269,1.782-0.806c0.613-0.498,1.044-1.006,1.294-1.523c0.306-0.613,0.68-0.92,1.121-0.92
		c0.287,0,0.565,0.168,0.834,0.503C151.739,29.973,151.874,30.283,151.874,30.571z"/>
	<path class="st0" d="M158.889,23.527c0,0.518-0.786,0.882-2.358,1.092c-0.038,0.421-0.057,1.38-0.057,2.875v1.898
		c0,0.383,0.058,0.949,0.172,1.695c0.115,0.748,0.173,1.305,0.173,1.668c0,0.307-0.153,0.58-0.46,0.82
		c-0.307,0.239-0.613,0.359-0.92,0.359c-0.479,0-0.882-0.412-1.207-1.236c-0.25-0.633-0.374-1.246-0.374-1.841v-6.095
		c-0.882-0.134-1.39-0.22-1.524-0.259c-0.498-0.153-0.747-0.374-0.747-0.661c0-0.077,0.019-0.163,0.058-0.259
		c0.498-0.709,1.054-1.064,1.667-1.064c0.039,0,0.096,0,0.173,0c0.076,0.02,0.134,0.029,0.173,0.029
		c0.402,0,0.594-0.469,0.575-1.409v-2.099c-0.097-0.211-0.145-0.393-0.145-0.546c0-0.249,0.147-0.475,0.441-0.676
		s0.574-0.302,0.84-0.302c0.398,0,0.778,0.187,1.139,0.561c0.361,0.374,0.542,0.772,0.542,1.193c0,0.46-0.072,0.916-0.216,1.366
		s-0.206,0.915-0.188,1.394v0.115C158.141,22.301,158.889,22.761,158.889,23.527z"/>
	<path class="st0" d="M168.952,30.916c0,0.901-0.384,1.688-1.15,2.357c-0.844,0.729-1.975,1.093-3.393,1.093
		c-0.613,0.019-1.274-0.105-1.983-0.374c-2.3-0.862-3.45-1.562-3.45-2.099c0-0.843,0.604-1.265,1.812-1.265
		c0.172,0,0.354,0.01,0.546,0.028c0.058,0.575,0.518,1.035,1.38,1.38c0.748,0.307,1.467,0.432,2.156,0.374
		c0.556-0.038,0.834-0.239,0.834-0.604c0-0.057-0.015-0.143-0.043-0.258c-0.029-0.115-0.043-0.206-0.043-0.273
		c0-0.066-0.364-0.215-1.093-0.445c-0.824-0.249-1.284-0.393-1.38-0.432c-2.186-1.303-3.277-2.875-3.277-4.715
		c0-1.111,0.316-2.137,0.948-3.076c0.709-1.035,1.591-1.553,2.646-1.553c0.785,0,1.682,0.307,2.688,0.92
		c1.007,0.614,1.625,1.275,1.854,1.984c0.153,0.499,0.23,0.911,0.23,1.237c0,0.345-0.048,0.632-0.144,0.861
		c-0.115,0.288-0.23,0.576-0.346,0.863c-0.364,0.249-0.729,0.373-1.092,0.373c-0.192,0-0.514-0.119-0.964-0.359
		c-0.45-0.238-0.676-0.445-0.676-0.617c0-0.076,0.115-0.326,0.346-0.748c0.134-0.248,0.201-0.46,0.201-0.632
		c0-1.15-0.451-1.725-1.352-1.725c-0.537,0-0.948,0.345-1.236,1.035c-0.211,0.537-0.316,1.111-0.316,1.725
		c0,0.768,0.547,1.457,1.639,2.07c0.997,0.441,2.003,0.891,3.02,1.352C168.405,29.891,168.952,30.398,168.952,30.916z"/>
</g>
<g>
	<path class="st0" d="M30.513,13.209c1.956,1.226,3.327,3.3,3.576,5.708c0.798,0.373,1.683,0.587,2.622,0.587
		c3.425,0,6.202-2.777,6.202-6.202c0-3.426-2.777-6.203-6.202-6.203C33.317,7.101,30.565,9.829,30.513,13.209z M26.45,25.907
		c3.426,0,6.203-2.777,6.203-6.202c0-3.425-2.777-6.202-6.203-6.202c-3.425,0-6.204,2.777-6.204,6.202
		C20.246,23.131,23.024,25.907,26.45,25.907z M29.081,26.331h-5.263c-4.378,0-7.941,3.562-7.941,7.941v6.437l0.016,0.1l0.444,0.141
		c4.179,1.305,7.81,1.74,10.797,1.74c5.837,0,9.22-1.664,9.429-1.771l0.415-0.209h0.044v-6.438
		C37.022,29.893,33.459,26.331,29.081,26.331z M39.342,19.928H34.12c-0.057,2.089-0.948,3.971-2.359,5.324
		c3.893,1.157,6.741,4.768,6.741,9.03v1.983c5.156-0.19,8.128-1.65,8.324-1.75l0.414-0.208h0.044v-6.438
		C47.282,23.49,43.72,19.928,39.342,19.928z M15.566,19.505c1.213,0,2.342-0.354,3.298-0.957c0.304-1.983,1.368-3.716,2.886-4.896
		c0.006-0.116,0.017-0.231,0.017-0.348c0-3.426-2.777-6.202-6.201-6.202c-3.426,0-6.202,2.776-6.202,6.202
		C9.364,16.729,12.14,19.505,15.566,19.505z M21.137,25.252c-1.404-1.346-2.292-3.218-2.358-5.294
		c-0.193-0.015-0.385-0.03-0.583-0.03h-5.263c-4.378,0-7.941,3.562-7.941,7.941v6.438l0.017,0.1l0.443,0.139
		c3.353,1.047,6.345,1.529,8.943,1.681v-1.943C14.396,30.02,17.243,26.411,21.137,25.252z"/>
</g>
</svg>
